<?xml version="1.0" encoding="UTF-8" standalone="no"?>
<!-- Created with Inkscape (http://www.inkscape.org/) -->

<svg
   width="200.68343mm"
   height="188.37431mm"
   viewBox="0 0 200.68343 188.37431"
   version="1.1"
   id="svg5"
   xml:space="preserve"
   inkscape:version="1.2.2 (b0a8486, 2022-12-01)"
   sodipodi:docname="drawing.svg"
   xmlns:inkscape="http://www.inkscape.org/namespaces/inkscape"
   xmlns:sodipodi="http://sodipodi.sourceforge.net/DTD/sodipodi-0.dtd"
   xmlns="http://www.w3.org/2000/svg"
   xmlns:svg="http://www.w3.org/2000/svg"><sodipodi:namedview
     id="namedview7"
     pagecolor="#000839"
     bordercolor="#eeeeee"
     borderopacity="1"
     inkscape:showpageshadow="0"
     inkscape:pageopacity="0"
     inkscape:pagecheckerboard="0"
     inkscape:deskcolor="#505050"
     inkscape:document-units="px"
     showgrid="false"
     showborder="false"
     inkscape:zoom="0.8527882"
     inkscape:cx="289.05184"
     inkscape:cy="364.09978"
     inkscape:window-width="1440"
     inkscape:window-height="769"
     inkscape:window-x="0"
     inkscape:window-y="25"
     inkscape:window-maximized="0"
     inkscape:current-layer="layer1" /><defs
     id="defs2" /><g
     inkscape:label="Layer 1"
     inkscape:groupmode="layer"
     id="layer1"
     transform="translate(-578.52701,166.58056)"><g
       id="g904"><path
         style="fill:#3b7c87;fill-opacity:1;stroke-width:0.264583"
         d="m 669.72642,1.7565966 c -4.82921,-11.01891 -8.74427,-20.0704796 -8.70014,-20.1146096 0.0441,-0.0441 1.35305,0.27717 2.90872,0.71399 1.55567,0.43682 4.09758,0.98267 5.64869,1.21299 1.55111,0.23031 2.85297,0.45153 2.89302,0.49158 0.0401,0.0401 1.39312,3.09993 3.00681,6.7997196 1.61369,3.69979 3.01361,6.80712 3.11092,6.90517 0.0973,0.0981 1.51001,-2.87851 3.13931,-6.61458 5.55846,-12.7458396 12.47157,-28.5112796 13.25201,-30.2213496 0.42847,-0.93881 1.68492,-3.79053 2.79212,-6.33714 1.10721,-2.54661 4.26435,-9.78267 7.01585,-16.08013 l 5.00275,-11.44992 -2.1082,-4.82195 c -1.15954,-2.65208 -3.39799,-7.73899 -4.97436,-11.30425 -3.58656,-8.11163 -16.35596,-37.238007 -20.38648,-46.500517 -1.66222,-3.81992 -3.09365,-6.94531 -3.18095,-6.94531 -0.0873,0 -1.44551,2.94679 -3.01823,6.54843 -1.57273,3.60164 -3.04315,6.69727 -3.26761,6.87917 -0.22447,0.1819 -0.78571,0.33073 -1.2472,0.33073 -0.99949,0 -6.54249,1.11868 -8.54473,1.72449 -0.77833,0.2355 -1.44464,0.39031 -1.48067,0.34403 -0.10198,-0.13099 17.417,-39.90473 17.57358,-39.8977 0.12759,0.006 6.22684,13.83426 25.20404,57.14376 3.92146,8.94953 9.14249,20.819437 11.60229,26.377567 l 4.47233,10.10569 -4.33628,9.87035 c -2.38498,5.42869 -5.35784,12.19207 -6.60641,15.02973 -1.24854,2.83765 -4.69495,10.69578 -7.65868,17.4625 -13.87798,31.6858596 -23.03745,52.387253 -23.17799,52.384721 -0.0848,-0.0016 -4.1053,-9.018246 -8.93451,-20.0371614 z M 598.95493,-46.080973 c -11.25335,-14.34285 -20.4459,-26.23931 -20.42789,-26.43657 0.0296,-0.3243 41.02332,-52.794257 41.24709,-52.794257 0.0521,0 0.10544,3.08466 0.11858,6.85479 l 0.0239,6.85479 -2.86535,3.6624 c -10.48119,13.396727 -26.22381,33.472287 -26.95573,34.374907 l -0.87508,1.07919 15.34059,19.53047 15.34059,19.53048 v 6.56066 c 0,3.70018 -0.10596,6.62615 -0.24301,6.71086 -0.13366,0.0826 -9.4503,-11.58487 -20.70365,-25.92772 z m 139.21541,19.11965 v -6.77729 l 15.21076,-19.37054 15.21077,-19.37055 -0.87493,-1.08219 c -0.48122,-0.59521 -7.32808,-9.32201 -15.21526,-19.39289 l -14.34031,-18.310687 0.0706,-6.69919 0.0706,-6.69918 19.05,24.2965 c 10.4775,13.363077 19.68177,25.114137 20.45393,26.113467 l 1.40394,1.81697 -20.41883,26.0162 c -11.23034,14.30891 -20.46438,26.0658 -20.52007,26.12644 -0.0557,0.0606 -0.10126,-2.93954 -0.10126,-6.66706 z m -80.03646,-13.00362 c -5.43017,-1.13466 -6.96971,-1.5173 -7.34943,-1.82667 -0.28124,-0.22914 -4.02226,-8.38666 -5.13224,-11.19117 -0.0678,-0.17122 0.99148,0.0323 2.47748,0.47599 1.42772,0.42629 4.14367,1.17527 6.03544,1.66439 l 3.43958,0.8893 2.31511,5.22244 c 1.27331,2.87235 2.3151,5.2643 2.3151,5.31545 0,0.20688 -1.33927,0.0273 -4.10104,-0.54973 z m -6.61458,-42.35668 c -0.14552,-0.0523 -2.08029,-0.59266 -4.29948,-1.20074 -2.21919,-0.60809 -4.0349,-1.20446 -4.0349,-1.32529 0,-0.25664 3.56829,-8.40188 3.76837,-8.60196 0.12994,-0.12994 9.15105,2.1357 9.36815,2.3528 0.0584,0.0584 -0.75809,2.08749 -1.81439,4.50913 -1.85614,4.25532 -2.08978,4.58893 -2.98775,4.26606 z"
         id="path392" /><path
         style="fill:#ca483c;fill-opacity:1;stroke-width:0.264583"
         d="m 672.49216,-15.812403 c -0.0389,-0.109 -1.32093,-0.3837 -2.8489,-0.61044 -2.76089,-0.40969 -7.17235,-1.4772 -10.71563,-2.59302 -2.51582,-0.79226 -8.47178,-3.76769 -11.37708,-5.68367 -6.53342,-4.30864 -12.42267,-10.2026 -16.59381,-16.60706 -1.70602,-2.61946 -4.64294,-8.2202 -4.42486,-8.43828 0.0758,-0.0758 1.74038,0.52019 3.69907,1.3244 1.9587,0.80421 6.35923,2.39947 9.77897,3.54503 15.96332,5.34743 30.06441,7.61011 42.8551,6.87657 5.15462,-0.29562 11.27939,-0.9839 11.95025,-1.34293 0.39751,-0.21274 0.3942,-0.14022 -0.0344,0.75197 -0.26082,0.54307 -2.58545,5.80944 -5.1658,11.70303 -2.58036,5.8936 -4.80185,10.83469 -4.93666,10.98021 -0.28618,0.30892 -12.07707,0.40005 -12.1863,0.0942 z m 29.14136,-14.24572 c 2.85105,-6.52014 5.24622,-11.8172 5.32263,-11.77124 0.51115,0.30747 14.16507,-4.0478 19.83711,-6.32757 1.96453,-0.7896 3.60907,-1.39941 3.65453,-1.35513 0.14345,0.13972 -2.33003,4.90489 -3.65432,7.04011 -6.39038,10.3034 -16.44102,18.73488 -27.38459,22.97292 -1.16417,0.45083 -2.30619,0.9268 -2.53786,1.05771 -0.23788,0.13442 1.83476,-4.92117 4.7625,-11.6168 z m 36.38778,3.17132 c 0,-3.8563 0.037,-5.43388 0.0822,-3.50573 0.0452,1.92816 0.0452,5.08331 0,7.01146 -0.0452,1.92815 -0.0822,0.35058 -0.0822,-3.50573 z m -63.48325,-20.55345 c -3.02849,-0.15355 -9.27851,-0.91724 -12.78374,-1.56206 -1.93782,-0.35648 -3.65286,-0.56808 -3.81119,-0.47022 -0.16941,0.10469 -0.21215,0.0554 -0.10388,-0.11979 0.11355,-0.18374 -0.0987,-0.35889 -0.55443,-0.4575 -0.40614,-0.0879 -3.11968,-0.81483 -6.0301,-1.61543 -2.91041,-0.8006 -5.58932,-1.51253 -5.95312,-1.58206 -2.46151,-0.47046 -12.9091,-4.49364 -19.05,-7.33582 l -3.57187,-1.65316 -0.3517,-1.83828 c -0.21993,-1.14956 -0.36578,-4.11819 -0.38928,-7.92369 -0.032,-5.18191 0.0482,-6.57794 0.54008,-9.40278 0.48513,-2.78592 2.25204,-9.66989 2.56137,-9.97922 0.0511,-0.0511 1.65066,0.56283 3.55448,1.36437 12.10091,5.0947 25.09357,8.72502 37.07984,10.36061 5.06788,0.69153 17.1058,0.83052 22.28468,0.25728 6.03364,-0.66784 15.22765,-2.30766 17.01798,-3.03527 0.49625,-0.20169 0.71874,0.18369 2.67899,4.64071 l 2.13778,4.86067 -4.99409,11.39743 c -2.74675,6.26859 -4.99409,11.48817 -4.99409,11.59906 0,0.11089 -1.39899,0.4592 -3.10886,0.77402 -8.3373,1.53505 -15.24547,2.07163 -22.15885,1.72113 z m 37.26413,-5.83873 c 0.0668,-0.10914 2.03639,-4.57834 4.37692,-9.93155 l 4.25553,-9.7331 -2.7324,-6.18325 -2.73241,-6.18325 0.71938,-0.14387 c 1.22705,-0.24542 9.75706,-3.35047 12.92315,-4.70423 1.65534,-0.7078 3.09843,-1.2869 3.20685,-1.2869 0.2844,0 1.77081,5.23491 2.36649,8.33437 1.14226,5.94336 1.32749,12.47104 0.52797,18.60509 -0.26183,2.00884 -0.42478,2.53235 -0.87973,2.82644 -1.81132,1.17087 -11.82434,5.26315 -17.87867,7.30694 -3.91186,1.32055 -4.36509,1.43986 -4.15308,1.09331 z m -37.66101,-35.28451 c -4.5558,-0.20544 -10.03931,-0.90007 -14.41979,-1.82665 -5.61064,-1.1868 -14.23723,-3.55566 -19.05,-5.23114 -4.80665,-1.67335 -11.16987,-4.21983 -11.37533,-4.552257 -0.0685,-0.11092 0.53116,-1.24623 1.3327,-2.52292 5.07407,-8.08207 12.58964,-15.01589 21.34113,-19.68924 2.51357,-1.34226 8.58468,-3.88033 11.10899,-4.64421 1.93341,-0.58505 7.52497,-1.72147 8.47025,-1.72147 0.42612,0 1.01942,-0.13094 1.31846,-0.29098 0.29904,-0.16004 0.47485,-0.17957 0.39069,-0.0434 -0.0935,0.15125 1.41267,0.20776 3.87068,0.14525 2.21302,-0.0563 4.96234,-0.007 6.1096,0.10955 l 2.08591,0.21188 8.14124,18.52084 c 4.47768,10.186447 8.06339,18.597277 7.96825,18.690727 -0.32591,0.32011 -8.37314,1.78554 -12.74069,2.32013 -4.92009,0.60223 -9.31015,0.76028 -14.55209,0.5239 z m 36.62715,-6.38737 c -0.97399,-2.06297 -13.51966,-30.764667 -13.47484,-30.827397 0.10444,-0.14618 3.62067,1.28614 5.99041,2.44018 9.19596,4.47828 17.74484,12.11814 23.1095,20.6522 l 1.49437,2.37721 -1.93633,0.883977 c -3.26673,1.49136 -13.75809,5.33373 -14.56341,5.33373 -0.11755,0 -0.39642,-0.38696 -0.6197,-0.8599 z m 27.25298,-23.217187 c 0,-3.8563 0.037,-5.43388 0.0822,-3.50573 0.0452,1.92816 0.0452,5.08331 0,7.01146 -0.0452,1.92815 -0.0822,0.35058 -0.0822,-3.50573 z m -118.50528,-6.86088 c -0.17595,-0.28468 0.34191,-0.67931 0.57956,-0.44165 0.0873,0.0873 0.0129,0.15878 -0.16551,0.15878 -0.17836,0 -0.25071,0.11907 -0.16077,0.26459 0.0899,0.14552 0.10399,0.26458 0.0312,0.26458 -0.0728,0 -0.20079,-0.11084 -0.28451,-0.2463 z"
         id="path390" /></g></g></svg>
