<?xml version="1.0" encoding="UTF-8" standalone="no"?>
<!-- Created with Inkscape (http://www.inkscape.org/) -->

<svg
   width="200.68343mm"
   height="188.37434mm"
   viewBox="0 0 200.68343 188.37434"
   version="1.1"
   id="svg5"
   xml:space="preserve"
   xmlns:inkscape="http://www.inkscape.org/namespaces/inkscape"
   xmlns:sodipodi="http://sodipodi.sourceforge.net/DTD/sodipodi-0.dtd"
   xmlns="http://www.w3.org/2000/svg"
   xmlns:svg="http://www.w3.org/2000/svg"><sodipodi:namedview
     id="namedview7"
     pagecolor="#505050"
     bordercolor="#eeeeee"
     borderopacity="1"
     inkscape:showpageshadow="0"
     inkscape:pageopacity="0"
     inkscape:pagecheckerboard="0"
     inkscape:deskcolor="#505050"
     inkscape:document-units="px"
     showgrid="false"
     showborder="false" /><defs
     id="defs2" /><g
     inkscape:label="Layer 1"
     inkscape:groupmode="layer"
     id="layer1"
     transform="translate(14.245858,-112.96684)"><g
       id="g2818"
       inkscape:export-filename="logo.svg"
       inkscape:export-xdpi="96"
       inkscape:export-ydpi="96"><path
         style="fill:#fd9f24;stroke-width:0.264583"
         d="m 76.953551,281.30401 c -4.82921,-11.01891 -8.74427,-20.07049 -8.700142,-20.11462 0.04413,-0.0441 1.353052,0.27717 2.90872,0.71399 1.555672,0.43683 4.097582,0.98267 5.648692,1.21299 1.55111,0.23032 2.85297,0.45153 2.89302,0.49158 0.0401,0.0401 1.39312,3.09993 3.00681,6.79972 1.61369,3.6998 3.01361,6.80712 3.11092,6.90517 0.0973,0.0981 1.51001,-2.87851 3.13931,-6.61458 5.55846,-12.74584 12.471569,-28.51128 13.252009,-30.22134 0.42847,-0.93882 1.68492,-3.79053 2.79212,-6.33715 1.10721,-2.54661 4.26435,-9.78267 7.01585,-16.08012 l 5.00275,-11.44993 -2.1082,-4.82195 c -1.15954,-2.65207 -3.39799,-7.73899 -4.97436,-11.30425 -3.58656,-8.11162 -16.355959,-37.23801 -20.386479,-46.50052 -1.66222,-3.81992 -3.09365,-6.94531 -3.18095,-6.94531 -0.0873,0 -1.44551,2.9468 -3.01823,6.54844 -1.57273,3.60164 -3.04315,6.69726 -3.26761,6.87916 -0.22447,0.18191 -0.78571,0.33073 -1.2472,0.33073 -0.99949,0 -6.54249,1.11869 -8.544727,1.72449 -0.778338,0.2355 -1.444641,0.39032 -1.480669,0.34403 -0.101986,-0.13099 17.416996,-39.90473 17.573576,-39.8977 0.12759,0.006 6.22684,13.83426 25.204039,57.14377 3.92146,8.94953 9.14249,20.81943 11.60229,26.37756 l 4.47233,10.10569 -4.33628,9.87036 c -2.38498,5.42869 -5.35784,12.19206 -6.60641,15.02972 -1.24854,2.83766 -4.69495,10.69578 -7.65868,17.4625 -13.877979,31.68587 -23.037449,52.38726 -23.177989,52.38473 -0.0848,-0.002 -4.1053,-9.01825 -8.93451,-20.03716 z M 6.1820607,233.46643 c -11.253349,-14.34285 -20.4458997,-26.23931 -20.4278917,-26.43656 0.0296,-0.32431 41.023326,-52.79426 41.247094,-52.79426 0.05208,0 0.105442,3.08465 0.118573,6.85479 l 0.02387,6.85478 -2.86535,3.6624 c -10.48119,13.39674 -26.2238193,33.47229 -26.9557313,34.37492 l -0.875083,1.07918 15.3405903,19.53048 15.340589,19.53047 v 6.56067 c 0,3.70017 -0.105955,6.62615 -0.243015,6.71085 -0.133656,0.0826 -9.450297,-11.58487 -20.7036453,-25.92772 z M 145.39747,252.58609 v -6.7773 l 15.21076,-19.37054 15.21077,-19.37054 -0.87493,-1.0822 c -0.48122,-0.5952 -7.32808,-9.32201 -15.21526,-19.39289 l -14.34031,-18.31069 0.0706,-6.69918 0.0706,-6.69919 19.05,24.29651 c 10.4775,13.36307 19.68177,25.11413 20.45393,26.11347 l 1.40394,1.81696 -20.41883,26.0162 c -11.23034,14.30891 -20.46438,26.06581 -20.52007,26.12644 -0.0557,0.0606 -0.10126,-2.93954 -0.10126,-6.66705 z M 65.361013,239.58246 c -5.430174,-1.13465 -6.969713,-1.5173 -7.349435,-1.82667 -0.281241,-0.22913 -4.022262,-8.38666 -5.132236,-11.19116 -0.06777,-0.17122 0.991478,0.0323 2.477478,0.47598 1.427724,0.4263 4.143672,1.17527 6.035443,1.66439 l 3.439583,0.88931 2.315104,5.22244 c 1.273307,2.87234 2.315104,5.26429 2.315104,5.31544 0,0.20688 -1.339276,0.0273 -4.101041,-0.54973 z m -6.614584,-42.35668 c -0.145521,-0.0523 -2.080286,-0.59265 -4.299479,-1.20074 -2.219193,-0.60808 -4.034896,-1.20446 -4.034896,-1.32529 0,-0.25663 3.568288,-8.40188 3.768368,-8.60196 0.129942,-0.12994 9.151049,2.13571 9.368147,2.35281 0.05838,0.0584 -0.758092,2.08748 -1.814391,4.50912 -1.856139,4.25533 -2.089779,4.58893 -2.987749,4.26606 z"
         id="path143" /><path
         style="fill:#b03328;stroke-width:0.264583"
         d="m 79.719291,263.735 c -0.0389,-0.109 -1.32093,-0.38369 -2.8489,-0.61043 -2.76089,-0.4097 -7.172352,-1.47721 -10.715628,-2.59302 -2.515825,-0.79226 -8.471784,-3.76769 -11.377084,-5.68367 -6.533414,-4.30865 -12.422666,-10.2026 -16.593812,-16.60706 -1.70602,-2.61946 -4.642932,-8.22021 -4.424854,-8.43828 0.07579,-0.0758 1.740373,0.52019 3.699068,1.3244 1.958697,0.80421 6.359234,2.39947 9.778973,3.54502 15.963318,5.34744 30.064407,7.61011 42.855097,6.87657 5.15462,-0.29561 11.279389,-0.98389 11.950249,-1.34293 0.39751,-0.21273 0.3942,-0.14022 -0.0344,0.75197 -0.26082,0.54308 -2.585449,5.80944 -5.165799,11.70304 -2.58036,5.89359 -4.80185,10.83468 -4.93666,10.98021 -0.28618,0.30892 -12.07707,0.40005 -12.1863,0.0942 z m 29.141359,-14.24572 c 2.85105,-6.52014 5.24622,-11.8172 5.32263,-11.77124 0.51115,0.30748 14.16508,-4.0478 19.83711,-6.32756 1.96453,-0.78961 3.60907,-1.39942 3.65453,-1.35514 0.14345,0.13972 -2.33003,4.90489 -3.65432,7.04011 -6.39038,10.3034 -16.44102,18.73488 -27.38459,22.97292 -1.16417,0.45084 -2.30619,0.92681 -2.53786,1.05771 -0.23788,0.13443 1.83476,-4.92117 4.7625,-11.6168 z m 36.38778,3.17133 c 0,-3.8563 0.037,-5.43388 0.0822,-3.50573 0.0452,1.92815 0.0452,5.08331 0,7.01146 -0.0452,1.92815 -0.0822,0.35057 -0.0822,-3.50573 z M 81.765181,232.10715 c -3.02849,-0.15354 -9.27851,-0.91724 -12.783737,-1.56205 -1.937824,-0.35648 -3.652861,-0.56809 -3.811191,-0.47023 -0.169407,0.1047 -0.212156,0.0554 -0.103883,-0.11979 0.113554,-0.18374 -0.0987,-0.35888 -0.554432,-0.4575 -0.406135,-0.0879 -3.119675,-0.81483 -6.030092,-1.61543 -2.910417,-0.8006 -5.589323,-1.51252 -5.953125,-1.58205 -2.461514,-0.47047 -12.909103,-4.49365 -19.05,-7.33583 l -3.571875,-1.65316 -0.351695,-1.83827 c -0.219932,-1.14956 -0.365778,-4.11819 -0.389284,-7.92369 -0.03201,-5.18191 0.04818,-6.57795 0.540084,-9.40279 0.485132,-2.78592 2.252043,-9.66989 2.561373,-9.97922 0.05114,-0.0511 1.650653,0.56283 3.554478,1.36438 12.100909,5.09469 25.093565,8.72502 37.079839,10.3606 5.06788,0.69154 17.1058,0.83052 22.28468,0.25729 6.033639,-0.66785 15.227649,-2.30766 17.017979,-3.03528 0.49625,-0.20169 0.71874,0.1837 2.67899,4.64072 l 2.13778,4.86067 -4.99409,11.39743 c -2.74675,6.26858 -4.99409,11.48816 -4.99409,11.59905 0,0.11089 -1.39899,0.4592 -3.10886,0.77402 -8.337299,1.53506 -15.245469,2.07163 -22.158849,1.72113 z m 37.264129,-5.83873 c 0.0668,-0.10914 2.03639,-4.57833 4.37692,-9.93154 l 4.25553,-9.73311 -2.7324,-6.18325 -2.73241,-6.18325 0.71938,-0.14387 c 1.22706,-0.24541 9.75706,-3.35047 12.92315,-4.70423 1.65534,-0.70779 3.09843,-1.2869 3.20685,-1.2869 0.2844,0 1.77081,5.23491 2.36649,8.33438 1.14226,5.94336 1.32749,12.47103 0.52797,18.60508 -0.26183,2.00884 -0.42478,2.53235 -0.87974,2.82644 -1.81131,1.17087 -11.82433,5.26315 -17.87866,7.30694 -3.91186,1.32055 -4.36509,1.43987 -4.15308,1.09331 z M 81.368301,190.98391 c -4.5558,-0.20543 -10.03931,-0.90007 -14.419788,-1.82665 -5.610641,-1.18679 -14.237232,-3.55566 -19.05,-5.23114 -4.806657,-1.67334 -11.169875,-4.21983 -11.375332,-4.55226 -0.06855,-0.11091 0.531164,-1.24623 1.332696,-2.52292 5.074076,-8.08206 12.589642,-15.01589 21.341132,-19.68923 2.513574,-1.34226 8.584679,-3.88034 11.108995,-4.64421 1.933407,-0.58506 7.524967,-1.72148 8.470247,-1.72148 0.42612,0 1.01942,-0.13094 1.31846,-0.29098 0.29904,-0.16004 0.47485,-0.17957 0.39069,-0.0434 -0.0935,0.15124 1.41267,0.20776 3.87068,0.14525 2.21302,-0.0563 4.96234,-0.007 6.1096,0.10955 l 2.08591,0.21188 8.141249,18.52083 c 4.47767,10.18646 8.06338,18.59729 7.96824,18.69074 -0.32591,0.3201 -8.37314,1.78553 -12.740689,2.32013 -4.92009,0.60222 -9.31015,0.76027 -14.55209,0.52389 z m 36.627149,-6.38737 c -0.97399,-2.06296 -13.51966,-30.76467 -13.47484,-30.8274 0.10444,-0.14618 3.62067,1.28615 5.99041,2.44018 9.19596,4.47829 17.74484,12.11814 23.1095,20.65221 l 1.49437,2.3772 -1.93633,0.88398 c -3.26673,1.49136 -13.75809,5.33373 -14.56341,5.33373 -0.11755,0 -0.39642,-0.38695 -0.6197,-0.8599 z m 27.25298,-23.21718 c 0,-3.8563 0.037,-5.43388 0.0822,-3.50573 0.0452,1.92815 0.0452,5.08331 0,7.01146 -0.0452,1.92815 -0.0822,0.35057 -0.0822,-3.50573 z M 26.743146,154.51847 c -0.175942,-0.28468 0.341916,-0.6793 0.579567,-0.44165 0.08733,0.0873 0.01286,0.15879 -0.16551,0.15879 -0.178363,0 -0.250711,0.11906 -0.160774,0.26458 0.08994,0.14552 0.10399,0.26458 0.03123,0.26458 -0.07276,0 -0.20079,-0.11083 -0.284513,-0.2463 z"
         id="path141" /></g></g></svg>
